<svg width="46" height="46" viewBox="0 0 46 46" fill="none" xmlns="http://www.w3.org/2000/svg">
<path d="M41.8182 14.6364C44.1278 14.6364 46 16.5086 46 18.8182V27.1818C46 29.4914 44.1278 31.3636 41.8182 31.3636H39.5978C38.5689 39.615 31.5301 46 23 46V41.8182C29.9286 41.8182 35.5455 36.2014 35.5455 29.2727V16.7273C35.5455 9.79861 29.9286 4.18182 23 4.18182C16.0713 4.18182 10.4545 9.79861 10.4545 16.7273V31.3636H4.18182C1.87226 31.3636 0 29.4914 0 27.1818V18.8182C0 16.5086 1.87226 14.6364 4.18182 14.6364H6.40213C7.43107 6.38499 14.4699 0 23 0C31.5301 0 38.5689 6.38499 39.5978 14.6364H41.8182ZM14.1334 30.9139L16.35 27.3673C18.2779 28.5748 20.5574 29.2727 23 29.2727C25.4426 29.2727 27.7221 28.5748 29.6499 27.3673L31.8667 30.9139C29.2961 32.5239 26.2568 33.4545 23 33.4545C19.7432 33.4545 16.7039 32.5239 14.1334 30.9139Z" fill="#FF474A"/>
</svg>
